# xmcd
#
# Track frame offsets:
#	183
#	13280
#	27275
#	41673
#	53093
#	66598
#	79388
#	93235
#	108820
#	125548
#	135800
#	149560
#	163695
#	174688
#	188640
#	207758
#	223605
#	236958
#	251658
#	263750
#	276535
#	307215
#
# Disc length: 4518 seconds
# Revision: 1
# Processed by: cddbd v1.5.2PL0 Copyright (c) Steve Scherf et al.
# Submitted via: dBpowerAMP V12.0
#
DISCID=5011a416
DTITLE=Joe Tex - Show Me
DYEAR=1967
DGENRE=Soul
TTITLE0=Show Me
TTITLE1=Skinny Legs and All
TTITLE2=Hold What You've Got
TTITLE3=I Gotcha
TTITLE4=Papa Was Too
TTITLE5=SYSLJFM
TTITLE6=I've Got to Do a Little Better
TTITLE7=Buying a Book
TTITLE8=You're Right
TTITLE9=You Got What It Takes (Aka: Take What I've Got)
TTITLE10=Don't Make Your Children Pay
TTITLE11=Have You Ever
TTITLE12=Don't Play With Me
TTITLE13=All a Man Needs (Is a Woman's Love)
TTITLE14=I Can See Everybody's Baby
TTITLE15=She Said Yeah
TTITLE16=It's Ridiculous
TTITLE17=We're Killing Ourselves
TTITLE18=Back Off
TTITLE19=I've Seen Enough
TTITLE20=Ain't Gonna Bump No More (With No Big Fat Woman)
TTITLE21=Loose Caboose
EXTD=
EXTT0=
EXTT1=
EXTT2=
EXTT3=
EXTT4=
EXTT5=
EXTT6=
EXTT7=
EXTT8=
EXTT9=
EXTT10=
EXTT11=
EXTT12=
EXTT13=
EXTT14=
EXTT15=
EXTT16=
EXTT17=
EXTT18=
EXTT19=
EXTT20=
EXTT21=
PLAYORDER=
